<svg data-v-423bf9ae="" xmlns="http://www.w3.org/2000/svg" viewBox="0 0 NaN 90" class="iconLeft"><!----><!----><!----><g data-v-423bf9ae="" id="c0a9fc41-5981-4393-bd26-c10ccbe2e609" fill="black" transform="matrix(Infinity,0,0,Infinity,0,45)"><path d=""></path></g><!----><g data-v-423bf9ae="" id="e86dc8ee-bcc9-4715-847a-ecd904af07f6" transform="matrix(1.2648538690022408,0,0,1.2648538690022408,0.19132185995299267,-20.40827150690754)" stroke="none" fill="black"><path d="M98.664 53.851c-4.609-4.618-19.415 4.652-27.638 1.965-5.11-1.67-6.167-11.778-11.989-18.361 2.073-1.408 4.416-3.128 5.302-4.256 1.186-1.512 2.601-6.218 1.244-7.575-3.222-3.229-12.849-2.739-19.618-.24-2.542-1.884-5.204-3.608-7.955-5.099-8.932-4.839-33.174-5.897-37.333 3.369-3.667 8.171 8.367 27.636 16.852 34.01.442 7.098 5.39 17.706 10.156 17.613 2.841-.056 4.348-8.504 4.841-11.912.392.084.786.165 1.184.243 1.642 6.355 5.575 13.149 9.395 13.075 2.69-.052 4.186-7.637 4.754-11.334 7.531.424 15.413-3.79 19.084-.955 7.279 5.622 6.887 23.527 13.196 23.404 4.612-.089 6.515-17.263 6.515-17.263s8.525-5.219 10.551-7.8c1.39-1.77 3.05-7.292 1.459-8.884zM12.437 22.86a5.214 5.214 0 1 1 9.153 4.995 5.214 5.214 0 0 1-9.153-4.995zm16.846 33.111c-1.181-1.354-10.917-3.727-10.917-3.727s9.759.104 11.382 1.759c1.887 1.923 2.964 7.957 2.964 7.957s-2.133-4.504-3.429-5.989zm2.918-13.95c-3.171 3.986-17.589 10.007-17.589 10.007s12.742-8.21 15.83-12.15c2.864-3.657 7.387-16.848 7.387-16.848s-2.509 15.066-5.628 18.991z"></path></g><!----></svg>