<svg data-v-423bf9ae="" xmlns="http://www.w3.org/2000/svg" viewBox="0 0 603 90" class="iconLeft"><!----><!----><!----><g data-v-423bf9ae="" id="7dd6c906-666d-4d3d-b23e-d282a0591929" fill="black" transform="matrix(6.091370322469708,0,0,6.091370322469708,140.07410600169842,-6.258883198766853)"><path d="M3.72 5.12C3.74 5.11 3.75 5.10 3.81 5.08C3.86 5.05 3.99 5.04 4.17 5.04C4.59 5.04 4.94 4.69 4.94 4.26C4.94 3.84 4.59 3.49 4.17 3.49C3.88 3.49 3.61 3.51 3.33 3.60C2.91 3.72 2.52 4.05 2.32 4.47C2.11 4.87 2.06 5.32 2.06 5.84L2.06 6.03L1.69 6.03C1.26 6.03 0.91 6.37 0.91 6.80C0.91 7.22 1.26 7.57 1.69 7.57L2.06 7.57L2.06 12.52C2.06 12.94 2.39 13.29 2.83 13.29C3.26 13.29 3.60 12.94 3.60 12.52L3.60 7.57L4.02 7.57C4.44 7.57 4.79 7.22 4.79 6.80C4.79 6.37 4.44 6.03 4.02 6.03L3.60 6.03L3.60 5.84C3.60 5.32 3.71 5.12 3.72 5.12ZM7.14 6.31C6.72 6.31 6.38 6.64 6.38 7.08L6.38 12.54C6.38 12.96 6.72 13.30 7.14 13.30C7.57 13.30 7.90 12.96 7.90 12.54L7.90 7.08C7.90 6.64 7.57 6.31 7.14 6.31ZM7.90 4.26C7.90 3.84 7.57 3.50 7.14 3.50C6.72 3.50 6.38 3.84 6.38 4.26L6.38 4.55C6.38 4.97 6.72 5.32 7.14 5.32C7.57 5.32 7.90 4.97 7.90 4.55L7.90 4.26ZM10.07 12.33L10.07 12.33C10.63 12.78 11.47 13.29 12.56 13.30L12.56 13.30C13.24 13.30 13.87 13.09 14.38 12.74L14.38 12.74C14.88 12.38 15.26 11.80 15.26 11.12L15.26 11.12C15.26 10.79 15.16 10.47 14.99 10.19L14.99 10.19C14.76 9.80 14.38 9.53 14 9.37L14 9.37C13.59 9.17 13.16 9.04 12.70 8.96L12.68 8.96L12.67 8.95L12.67 8.95C12.19 8.86 11.83 8.74 11.65 8.61L11.65 8.61C11.55 8.55 11.51 8.50 11.49 8.47L11.49 8.47C11.47 8.43 11.47 8.41 11.47 8.36L11.47 8.36C11.47 8.29 11.51 8.16 11.69 8.04L11.69 8.04C11.87 7.90 12.18 7.78 12.53 7.78L12.53 7.78C12.98 7.78 13.37 8.01 13.82 8.30L13.82 8.30C14.17 8.54 14.63 8.44 14.85 8.11L14.85 8.11C15.06 7.76 14.97 7.29 14.63 7.07L14.63 7.07L14.63 7.07C14.18 6.76 13.50 6.30 12.53 6.30L12.53 6.30C11.89 6.30 11.30 6.48 10.81 6.82L10.81 6.82C10.35 7.17 9.98 7.71 9.98 8.36L9.98 8.36C9.98 8.68 10.07 8.99 10.22 9.24L10.22 9.24C10.47 9.62 10.81 9.87 11.19 10.05L11.19 10.05C11.55 10.22 11.97 10.33 12.40 10.42L12.42 10.42L12.42 10.42L12.42 10.42L12.42 10.42C12.92 10.51 13.34 10.67 13.54 10.81L13.54 10.81C13.65 10.88 13.71 10.93 13.72 10.98L13.72 10.98C13.75 11.02 13.76 11.05 13.76 11.12L13.76 11.12C13.76 11.23 13.71 11.37 13.51 11.54L13.51 11.54C13.29 11.68 12.94 11.80 12.56 11.80L12.56 11.80C12.01 11.82 11.38 11.49 11.02 11.19L11.02 11.19C10.71 10.92 10.22 10.96 9.97 11.30L9.97 11.30C9.72 11.61 9.76 12.08 10.07 12.33ZM18.75 9.37C18.76 8.54 19.42 7.87 20.24 7.85C21.08 7.87 21.76 8.54 21.76 9.37L21.76 12.53C21.76 12.96 22.09 13.30 22.53 13.30C22.96 13.30 23.30 12.96 23.30 12.53L23.30 9.37C23.30 7.69 21.94 6.30 20.24 6.30C19.70 6.30 19.19 6.47 18.75 6.71L18.75 4.27C18.75 3.84 18.40 3.50 17.96 3.50C17.54 3.50 17.19 3.84 17.19 4.27L17.19 12.53C17.19 12.60 17.21 12.67 17.22 12.73C17.32 13.05 17.61 13.30 17.96 13.30C18.40 13.30 18.75 12.96 18.75 12.53L18.75 9.37ZM32.26 7.06C32.26 6.64 31.92 6.30 31.51 6.30C31.15 6.30 30.87 6.57 30.79 6.92C30.25 6.54 29.62 6.30 28.92 6.30C27.97 6.30 27.15 6.71 26.54 7.35C25.94 7.98 25.59 8.85 25.59 9.81C25.59 10.77 25.94 11.63 26.54 12.28C27.15 12.91 27.97 13.30 28.92 13.30C28.92 13.30 28.92 13.30 28.92 13.30C29.62 13.30 30.25 13.08 30.79 12.70C30.87 13.03 31.15 13.30 31.51 13.30C31.92 13.30 32.26 12.96 32.26 12.56L32.26 9.81C32.26 9.81 32.26 9.81 32.26 9.81C32.26 9.81 32.26 9.81 32.26 9.81L32.26 7.06ZM30.23 11.26C29.89 11.61 29.41 11.80 28.92 11.80C28.42 11.80 27.94 11.61 27.62 11.26C27.29 10.89 27.09 10.39 27.09 9.81C27.09 9.23 27.29 8.72 27.62 8.37C27.94 7.99 28.42 7.80 28.92 7.80C29.41 7.80 29.89 7.99 30.23 8.37C30.56 8.72 30.77 9.23 30.77 9.81C30.77 10.39 30.56 10.89 30.23 11.26ZM41.34 9.81C41.34 9.81 41.34 9.81 41.34 9.81C41.34 9.80 41.34 9.80 41.34 9.80L41.34 4.26C41.34 3.85 41.01 3.50 40.59 3.50C40.15 3.50 39.82 3.85 39.82 4.26L39.82 6.89C39.30 6.52 38.63 6.30 37.94 6.30C36.05 6.30 34.54 7.90 34.54 9.81C34.54 11.70 36.05 13.30 37.94 13.30C38.64 13.30 39.31 13.06 39.84 12.70C39.91 13.03 40.21 13.30 40.59 13.30C41.01 13.30 41.34 12.95 41.34 12.54ZM39.26 8.40C39.61 8.75 39.82 9.25 39.82 9.81C39.82 10.35 39.61 10.85 39.26 11.20C38.91 11.56 38.46 11.77 37.94 11.77C37.44 11.77 36.97 11.56 36.62 11.20C36.27 10.85 36.06 10.35 36.06 9.81C36.06 9.25 36.27 8.75 36.62 8.40C36.97 8.04 37.44 7.83 37.94 7.83C38.46 7.83 38.91 8.04 39.26 8.40ZM49.36 6.47C49 6.30 48.58 6.50 48.43 6.87L46.80 10.68L45.19 6.87C45.02 6.50 44.59 6.30 44.25 6.47C43.86 6.64 43.68 7.04 43.85 7.42L46.12 12.85C46.13 12.89 46.14 12.94 46.17 12.95C46.17 12.96 46.17 12.96 46.19 12.96C46.21 12.99 46.24 13.03 46.26 13.06C46.27 13.08 46.27 13.08 46.28 13.08C46.31 13.12 46.34 13.13 46.37 13.16C46.37 13.16 46.38 13.16 46.38 13.17C46.44 13.20 46.47 13.23 46.51 13.24C46.51 13.24 46.51 13.24 46.54 13.24C46.54 13.24 46.54 13.24 46.54 13.26C46.58 13.26 46.61 13.27 46.65 13.29C46.66 13.29 46.66 13.29 46.68 13.29C46.73 13.30 46.77 13.30 46.80 13.30C46.80 13.30 46.80 13.30 46.80 13.30C46.84 13.30 46.89 13.30 46.94 13.29C46.96 13.29 46.96 13.29 46.97 13.29C47.00 13.27 47.04 13.26 47.08 13.26C47.08 13.24 47.08 13.24 47.08 13.24C47.11 13.24 47.11 13.24 47.11 13.24C47.15 13.23 47.18 13.20 47.21 13.17C47.21 13.16 47.22 13.16 47.22 13.16C47.25 13.13 47.28 13.12 47.31 13.08C47.31 13.08 47.32 13.08 47.32 13.06C47.35 13.03 47.38 12.99 47.40 12.96C47.40 12.96 47.42 12.96 47.42 12.95C47.43 12.94 47.46 12.89 47.47 12.85L49.77 7.42C49.94 7.04 49.76 6.64 49.36 6.47ZM53.16 6.31C52.74 6.31 52.40 6.64 52.40 7.08L52.40 12.54C52.40 12.96 52.74 13.30 53.16 13.30C53.59 13.30 53.91 12.96 53.91 12.54L53.91 7.08C53.91 6.64 53.59 6.31 53.16 6.31ZM53.91 4.26C53.91 3.84 53.59 3.50 53.16 3.50C52.74 3.50 52.40 3.84 52.40 4.26L52.40 4.55C52.40 4.97 52.74 5.32 53.16 5.32C53.59 5.32 53.91 4.97 53.91 4.55L53.91 4.26ZM56.08 12.33L56.08 12.33C56.64 12.78 57.48 13.29 58.58 13.30L58.58 13.30C59.26 13.30 59.89 13.09 60.40 12.74L60.40 12.74C60.90 12.38 61.28 11.80 61.28 11.12L61.28 11.12C61.28 10.79 61.18 10.47 61.01 10.19L61.01 10.19C60.77 9.80 60.40 9.53 60.02 9.37L60.02 9.37C59.61 9.17 59.18 9.04 58.72 8.96L58.70 8.96L58.69 8.95L58.69 8.95C58.21 8.86 57.85 8.74 57.67 8.61L57.67 8.61C57.57 8.55 57.53 8.50 57.51 8.47L57.51 8.47C57.48 8.43 57.48 8.41 57.48 8.36L57.48 8.36C57.48 8.29 57.53 8.16 57.71 8.04L57.71 8.04C57.89 7.90 58.20 7.78 58.55 7.78L58.55 7.78C59.00 7.78 59.39 8.01 59.84 8.30L59.84 8.30C60.19 8.54 60.65 8.44 60.87 8.11L60.87 8.11C61.08 7.76 60.98 7.29 60.65 7.07L60.65 7.07L60.65 7.07C60.20 6.76 59.51 6.30 58.55 6.30L58.55 6.30C57.90 6.30 57.32 6.48 56.83 6.82L56.83 6.82C56.36 7.17 56.00 7.71 56.00 8.36L56.00 8.36C56.00 8.68 56.08 8.99 56.24 9.24L56.24 9.24C56.49 9.62 56.83 9.87 57.20 10.05L57.20 10.05C57.57 10.22 57.99 10.33 58.42 10.42L58.44 10.42L58.44 10.42L58.44 10.42L58.44 10.42C58.94 10.51 59.36 10.67 59.56 10.81L59.56 10.81C59.67 10.88 59.72 10.93 59.74 10.98L59.74 10.98C59.77 11.02 59.78 11.05 59.78 11.12L59.78 11.12C59.78 11.23 59.72 11.37 59.53 11.54L59.53 11.54C59.30 11.68 58.95 11.80 58.58 11.80L58.58 11.80C58.03 11.82 57.40 11.49 57.04 11.19L57.04 11.19C56.73 10.92 56.24 10.96 55.99 11.30L55.99 11.30C55.73 11.61 55.78 12.08 56.08 12.33ZM66.26 13.34C66.26 13.34 66.26 13.34 66.26 13.34C67.19 13.34 68.03 12.94 68.60 12.28C69.23 11.66 69.58 10.79 69.58 9.81L69.58 9.81C69.58 8.86 69.23 8.04 68.60 7.36C68.03 6.71 67.19 6.30 66.26 6.30C65.30 6.30 64.48 6.71 63.85 7.36C63.25 8.04 62.89 8.86 62.89 9.81C62.89 10.79 63.25 11.66 63.85 12.28C64.48 12.94 65.30 13.34 66.26 13.34ZM64.92 8.36C65.27 8.05 65.73 7.83 66.26 7.83C66.75 7.83 67.20 8.05 67.55 8.36C67.90 8.74 68.10 9.24 68.10 9.81L68.10 9.81C68.10 10.42 67.90 10.91 67.55 11.30C67.20 11.63 66.75 11.82 66.26 11.82C65.73 11.82 65.27 11.63 64.92 11.30C64.60 10.91 64.41 10.42 64.41 9.81C64.41 9.24 64.60 8.74 64.92 8.36ZM75.25 6.31C74.55 6.30 73.95 6.55 73.49 6.86C73.39 6.93 73.28 7.04 73.19 7.14L73.19 7.04C73.19 6.64 72.84 6.31 72.42 6.31C72.02 6.31 71.68 6.64 71.68 7.04L71.68 12.56C71.68 12.96 72.02 13.30 72.42 13.30C72.84 13.30 73.19 12.96 73.19 12.56L73.19 9.90C73.26 9.70 73.43 9.17 73.77 8.72C73.93 8.46 74.14 8.22 74.41 8.05C74.65 7.87 74.93 7.78 75.25 7.78C75.67 7.78 75.99 7.43 75.99 7.04C75.99 6.64 75.67 6.31 75.25 6.31Z"></path></g><!----><g data-v-423bf9ae="" id="1efdd67b-99ab-4923-9eb8-fd0a45096480" transform="matrix(1.2648538690022408,0,0,1.2648538690022408,0.19132185995299267,-20.40827150690754)" stroke="none" fill="black"><path d="M98.664 53.851c-4.609-4.618-19.415 4.652-27.638 1.965-5.11-1.67-6.167-11.778-11.989-18.361 2.073-1.408 4.416-3.128 5.302-4.256 1.186-1.512 2.601-6.218 1.244-7.575-3.222-3.229-12.849-2.739-19.618-.24-2.542-1.884-5.204-3.608-7.955-5.099-8.932-4.839-33.174-5.897-37.333 3.369-3.667 8.171 8.367 27.636 16.852 34.01.442 7.098 5.39 17.706 10.156 17.613 2.841-.056 4.348-8.504 4.841-11.912.392.084.786.165 1.184.243 1.642 6.355 5.575 13.149 9.395 13.075 2.69-.052 4.186-7.637 4.754-11.334 7.531.424 15.413-3.79 19.084-.955 7.279 5.622 6.887 23.527 13.196 23.404 4.612-.089 6.515-17.263 6.515-17.263s8.525-5.219 10.551-7.8c1.39-1.77 3.05-7.292 1.459-8.884zM12.437 22.86a5.214 5.214 0 1 1 9.153 4.995 5.214 5.214 0 0 1-9.153-4.995zm16.846 33.111c-1.181-1.354-10.917-3.727-10.917-3.727s9.759.104 11.382 1.759c1.887 1.923 2.964 7.957 2.964 7.957s-2.133-4.504-3.429-5.989zm2.918-13.95c-3.171 3.986-17.589 10.007-17.589 10.007s12.742-8.21 15.83-12.15c2.864-3.657 7.387-16.848 7.387-16.848s-2.509 15.066-5.628 18.991z"></path></g><!----></svg>